<svg width="18" height="14" viewBox="0 0 18 14" fill="none" xmlns="http://www.w3.org/2000/svg">
<path d="M15.666 0.333008H2.33268C1.41602 0.333008 0.674349 1.08301 0.674349 1.99967L0.666016 11.9997C0.666016 12.9163 1.41602 13.6663 2.33268 13.6663H15.666C16.5827 13.6663 17.3327 12.9163 17.3327 11.9997V1.99967C17.3327 1.08301 16.5827 0.333008 15.666 0.333008ZM14.8327 11.9997H3.16602C2.70768 11.9997 2.33268 11.6247 2.33268 11.1663V3.66634L8.11602 7.28301C8.65768 7.62467 9.34102 7.62467 9.88268 7.28301L15.666 3.66634V11.1663C15.666 11.6247 15.291 11.9997 14.8327 11.9997ZM8.99935 6.16634L2.33268 1.99967H15.666L8.99935 6.16634Z" fill="black"/>
</svg>
