<svg width="16" height="16" viewBox="0 0 16 16" fill="none" xmlns="http://www.w3.org/2000/svg">
<path d="M9.66673 4.66667H11.3334V6.33333C11.3334 6.79167 11.7084 7.16667 12.1667 7.16667C12.6251 7.16667 13.0001 6.79167 13.0001 6.33333V4.66667H14.6667C15.1251 4.66667 15.5001 4.29167 15.5001 3.83333C15.5001 3.375 15.1251 3 14.6667 3H13.0001V1.33333C13.0001 0.875 12.6251 0.5 12.1667 0.5C11.7084 0.5 11.3334 0.875 11.3334 1.33333V3H9.66673C9.2084 3 8.8334 3.375 8.8334 3.83333C8.8334 4.29167 9.2084 4.66667 9.66673 4.66667ZM14.0084 10.725L11.8917 10.4833C11.3834 10.425 10.8834 10.6 10.5251 10.9583L8.99173 12.4917C6.6334 11.2917 4.70007 9.36667 3.50007 7L5.04173 5.45833C5.40007 5.1 5.57507 4.59167 5.51673 4.09167L5.27507 1.99167C5.1834 1.15 4.46673 0.508333 3.62507 0.508333H2.1834C1.24173 0.508333 0.4584 1.29167 0.516733 2.23333C0.9584 9.35 6.65007 15.0333 13.7584 15.475C14.7001 15.5333 15.4834 14.75 15.4834 13.8083V12.3667C15.4917 11.5333 14.8501 10.8167 14.0084 10.725Z" fill="black"/>
</svg>
