<svg width="18" height="16" viewBox="0 0 18 16" fill="none" xmlns="http://www.w3.org/2000/svg">
<path d="M17.9737 2.7174C17.5093 3.33692 16.9479 3.87733 16.3112 4.31776C16.3112 4.47959 16.3112 4.64142 16.3112 4.81225C16.3163 7.7511 15.1424 10.5691 13.0527 12.6345C10.9629 14.6999 8.13206 15.8399 5.19491 15.7989C3.49685 15.8046 1.82053 15.4169 0.297277 14.6661C0.215137 14.6302 0.162166 14.549 0.162476 14.4593V14.3604C0.162476 14.2313 0.267087 14.1267 0.396127 14.1267C2.06528 14.0716 3.67488 13.4929 4.9972 12.4724C3.48639 12.4419 2.12705 11.5469 1.50146 10.1707C1.46987 10.0956 1.4797 10.0093 1.52743 9.9432C1.57515 9.8771 1.65386 9.8407 1.73511 9.8471C2.19428 9.8932 2.65804 9.8505 3.10106 9.7212C1.43325 9.375 0.180067 7.9904 0.000716559 6.2957C-0.00565344 6.2144 0.0307765 6.1357 0.0968565 6.0879C0.162926 6.0402 0.249097 6.0303 0.324237 6.062C0.771797 6.2595 1.25495 6.3635 1.7441 6.3676C0.282696 5.40846 -0.348534 3.58405 0.207406 1.92622C0.264796 1.76513 0.402667 1.64612 0.570356 1.61294C0.738037 1.57975 0.910817 1.63728 1.02518 1.76439C2.99725 3.86325 5.7069 5.11396 8.58276 5.25279C8.50916 4.95885 8.47296 4.65676 8.47496 4.35372C8.50186 2.76472 9.48506 1.34921 10.9643 0.769872C12.4434 0.190542 14.1258 0.562032 15.2239 1.71044C15.9723 1.56785 16.6959 1.31645 17.3716 0.964212C17.4211 0.933312 17.4839 0.933312 17.5334 0.964212C17.5643 1.01373 17.5643 1.07652 17.5334 1.12604C17.2061 1.87552 16.6532 2.50412 15.9518 2.92419C16.566 2.85296 17.1694 2.70807 17.7491 2.49264C17.7979 2.45942 17.862 2.45942 17.9108 2.49264C17.9517 2.51134 17.9823 2.54711 17.9944 2.59042C18.0065 2.63373 17.9989 2.68018 17.9737 2.7174Z" fill="black"/>
</svg>
